<svg width="21" height="36" viewBox="0 0 21 36" fill="none" xmlns="http://www.w3.org/2000/svg">
<path d="M0 8.5293C0 4.11102 3.58172 0.529297 8 0.529297H20.0312V35.472H8C3.58172 35.472 0 31.8903 0 27.472V8.5293Z" fill="#7879F1"/>
<mask id="path-2-inside-1_1461_6484" fill="white">
<path d="M11.2917 13.3522L6.73437 17.9095L11.2917 22.4668L10.3802 24.2897L4 17.9095L10.3802 11.5293L11.2917 13.3522Z"/>
<path d="M16.0312 13.5345L11.474 18.0918L16.0312 22.6491L15.1198 24.472L8.73958 18.0918L15.1198 11.7116L16.0312 13.5345Z"/>
</mask>
<path d="M11.2917 13.3522L6.73437 17.9095L11.2917 22.4668L10.3802 24.2897L4 17.9095L10.3802 11.5293L11.2917 13.3522Z" fill="white"/>
<path d="M16.0312 13.5345L11.474 18.0918L16.0312 22.6491L15.1198 24.472L8.73958 18.0918L15.1198 11.7116L16.0312 13.5345Z" fill="white"/>
<path d="M11.2917 13.3522L18.3627 20.4233L23.4593 15.3267L20.2359 8.88008L11.2917 13.3522ZM6.73437 17.9095L-0.336695 10.8384L-7.40776 17.9095L-0.336695 24.9806L6.73437 17.9095ZM11.2917 22.4668L20.2359 26.9389L23.4593 20.4923L18.3627 15.3957L11.2917 22.4668ZM10.3802 24.2897L3.30914 31.3608L13.1197 41.1714L19.3245 28.7618L10.3802 24.2897ZM4 17.9095L-3.07107 10.8384L-10.1421 17.9095L-3.07107 24.9806L4 17.9095ZM10.3802 11.5293L19.3245 7.05716L13.1197 -5.35236L3.30914 4.45823L10.3802 11.5293ZM16.0312 13.5345L23.1023 20.6056L28.1989 15.509L24.9755 9.06237L16.0312 13.5345ZM11.474 18.0918L4.40289 11.0207L-2.66818 18.0918L4.40289 25.1629L11.474 18.0918ZM16.0312 22.6491L24.9755 27.1212L28.1989 20.6746L23.1023 15.578L16.0312 22.6491ZM15.1198 24.472L8.04872 31.5431L17.8593 41.3537L24.0641 28.9441L15.1198 24.472ZM8.73958 18.0918L1.66851 11.0207L-5.40255 18.0918L1.66851 25.1629L8.73958 18.0918ZM15.1198 11.7116L24.0641 7.23945L17.8593 -5.17006L8.04872 4.64052L15.1198 11.7116ZM4.2206 6.28115L-0.336695 10.8384L13.8054 24.9806L18.3627 20.4233L4.2206 6.28115ZM-0.336695 24.9806L4.2206 29.5379L18.3627 15.3957L13.8054 10.8384L-0.336695 24.9806ZM2.34739 17.9947L1.43593 19.8176L19.3245 28.7618L20.2359 26.9389L2.34739 17.9947ZM17.4513 17.2186L11.0711 10.8384L-3.07107 24.9806L3.30914 31.3608L17.4513 17.2186ZM11.0711 24.9806L17.4513 18.6004L3.30914 4.45823L-3.07107 10.8384L11.0711 24.9806ZM1.43593 16.0014L2.34739 17.8243L20.2359 8.88008L19.3245 7.05716L1.43593 16.0014ZM8.96018 6.46344L4.40289 11.0207L18.545 25.1629L23.1023 20.6056L8.96018 6.46344ZM4.40289 25.1629L8.96018 29.7202L23.1023 15.578L18.545 11.0207L4.40289 25.1629ZM7.08698 18.177L6.17552 19.9999L24.0641 28.9441L24.9755 27.1212L7.08698 18.177ZM22.1909 17.4009L15.8107 11.0207L1.66851 25.1629L8.04872 31.5431L22.1909 17.4009ZM15.8107 25.1629L22.1909 18.7827L8.04872 4.64052L1.66851 11.0207L15.8107 25.1629ZM6.17552 16.1837L7.08698 18.0066L24.9755 9.06237L24.0641 7.23945L6.17552 16.1837Z" fill="white" mask="url(#path-2-inside-1_1461_6484)"/>
</svg>
