<svg width="21" height="35" viewBox="0 0 21 35" fill="none" xmlns="http://www.w3.org/2000/svg">
<path d="M0 8C0 3.58172 3.58172 0 8 0H20.0312V34.9427H8C3.58172 34.9427 0 31.361 0 26.9427V8Z" fill="#7879F1"/>
<mask id="path-2-inside-1_1612_7518" fill="white">
<path d="M8.73959 22.1195L13.2969 17.5622L8.73959 13.0049L9.65104 11.182L16.0312 17.5622L9.65104 23.9424L8.73959 22.1195Z"/>
<path d="M4 21.9372L8.55729 17.3799L4 12.8226L4.91146 10.9997L11.2917 17.3799L4.91146 23.7601L4 21.9372Z"/>
</mask>
<path d="M8.73959 22.1195L13.2969 17.5622L8.73959 13.0049L9.65104 11.182L16.0312 17.5622L9.65104 23.9424L8.73959 22.1195Z" fill="white"/>
<path d="M4 21.9372L8.55729 17.3799L4 12.8226L4.91146 10.9997L11.2917 17.3799L4.91146 23.7601L4 21.9372Z" fill="white"/>
<path d="M8.73959 22.1195L1.66852 15.0484L-3.42802 20.1449L-0.204687 26.5916L8.73959 22.1195ZM13.2969 17.5622L20.3679 24.6332L27.439 17.5622L20.3679 10.4911L13.2969 17.5622ZM8.73959 13.0049L-0.204687 8.53275L-3.42802 14.9794L1.66852 20.0759L8.73959 13.0049ZM9.65104 11.182L16.7221 4.1109L6.91153 -5.69969L0.706771 6.70983L9.65104 11.182ZM16.0312 17.5622L23.1023 24.6332L30.1734 17.5622L23.1023 10.4911L16.0312 17.5622ZM9.65104 23.9424L0.706771 28.4145L6.91153 40.824L16.7221 31.0134L9.65104 23.9424ZM4 21.9372L-3.07107 14.8661L-8.1676 19.9626L-4.94427 26.4093L4 21.9372ZM8.55729 17.3799L15.6284 24.4509L22.6994 17.3799L15.6284 10.3088L8.55729 17.3799ZM4 12.8226L-4.94427 8.35045L-8.1676 14.7971L-3.07107 19.8937L4 12.8226ZM4.91146 10.9997L11.9825 3.92861L2.17195 -5.88198L-4.03281 6.52754L4.91146 10.9997ZM11.2917 17.3799L18.3627 24.4509L25.4338 17.3799L18.3627 10.3088L11.2917 17.3799ZM4.91146 23.7601L-4.03281 28.2322L2.17195 40.6417L11.9825 30.8312L4.91146 23.7601ZM15.8107 29.1905L20.3679 24.6332L6.22581 10.4911L1.66852 15.0484L15.8107 29.1905ZM20.3679 10.4911L15.8107 5.93382L1.66852 20.0759L6.22581 24.6332L20.3679 10.4911ZM17.6839 17.477L18.5953 15.6541L0.706771 6.70983L-0.204687 8.53275L17.6839 17.477ZM2.57997 18.253L8.96018 24.6332L23.1023 10.4911L16.7221 4.1109L2.57997 18.253ZM8.96018 10.4911L2.57997 16.8713L16.7221 31.0134L23.1023 24.6332L8.96018 10.4911ZM18.5953 19.4702L17.6839 17.6473L-0.204687 26.5916L0.706771 28.4145L18.5953 19.4702ZM11.0711 29.0082L15.6284 24.4509L1.48622 10.3088L-3.07107 14.8661L11.0711 29.0082ZM15.6284 10.3088L11.0711 5.75152L-3.07107 19.8937L1.48622 24.4509L15.6284 10.3088ZM12.9443 17.2947L13.8557 15.4718L-4.03281 6.52754L-4.94427 8.35045L12.9443 17.2947ZM-2.15961 18.0707L4.2206 24.4509L18.3627 10.3088L11.9825 3.92861L-2.15961 18.0707ZM4.2206 10.3088L-2.15961 16.689L11.9825 30.8312L18.3627 24.4509L4.2206 10.3088ZM13.8557 19.288L12.9443 17.465L-4.94427 26.4093L-4.03281 28.2322L13.8557 19.288Z" fill="white" mask="url(#path-2-inside-1_1612_7518)"/>
</svg>
