<svg width="24" height="24" viewBox="0 0 24 24" fill="none" xmlns="http://www.w3.org/2000/svg">
<g id="droop/filled/notifications">
<g id="Union">
<path d="M12 2C12.5523 2 13 2.44772 13 3V4.07089C16.3923 4.55612 19 7.47353 19 11V15H20C20.5523 15 21 15.4477 21 16C21 16.5523 20.5523 17 20 17H4C3.44772 17 3 16.5523 3 16C3 15.4477 3.44772 15 4 15H5V11C5 7.47353 7.60771 4.55612 11 4.07089V3C11 2.44772 11.4477 2 12 2Z" fill="#7879F1"/>
<path d="M14.8356 19.9819C14.4289 21.1565 13.313 22 12 22C10.687 22 9.57105 21.1565 9.16437 19.9819C8.98368 19.46 9.44772 19 10 19H14C14.5523 19 15.0163 19.46 14.8356 19.9819Z" fill="#7879F1"/>
</g>
</g>
</svg>
