<svg width="24" height="24" viewBox="0 0 24 24" fill="none" xmlns="http://www.w3.org/2000/svg">
<g id="close">
<path id="Icon" fill-rule="evenodd" clip-rule="evenodd" d="M7.05711 4.93873L11.9996 9.88153L16.9429 4.93873C17.5279 4.35376 18.4763 4.35376 19.0613 4.93873C19.6462 5.52371 19.6462 6.47214 19.0613 7.05711L14.1182 11.9996L19.0613 16.9429C19.6462 17.5279 19.6462 18.4763 19.0613 19.0613C18.4763 19.6462 17.5279 19.6462 16.9429 19.0613L11.9996 14.1182L7.05711 19.0613C6.47214 19.6462 5.52371 19.6462 4.93873 19.0613C4.35376 18.4763 4.35376 17.5279 4.93873 16.9429L9.88153 11.9996L4.93873 7.05711C4.35376 6.47214 4.35376 5.52371 4.93873 4.93873C5.52371 4.35376 6.47214 4.35376 7.05711 4.93873Z" fill="#333333"/>
</g>
</svg>
