<svg width="24" height="24" viewBox="0 0 24 24" fill="none" xmlns="http://www.w3.org/2000/svg">
<g id="droop/filled/delete">
<path id="Union" fill-rule="evenodd" clip-rule="evenodd" d="M5 8C4.44772 8 4 7.55228 4 7C4 6.44772 4.44772 6 5 6H8V5C8 3.34315 9.34315 2 11 2H13C14.6569 2 16 3.34315 16 5V6H19C19.5523 6 20 6.44772 20 7C20 7.55228 19.5523 8 19 8V20C19 21.1046 18.1046 22 17 22H7C5.89543 22 5 21.1046 5 20V8ZM10 6H14V5C14 4.44772 13.5523 4 13 4H11C10.4477 4 10 4.44772 10 5V6ZM10 11C10.5523 11 11 11.4477 11 12V16C11 16.5523 10.5523 17 10 17C9.44772 17 9 16.5523 9 16V12C9 11.4477 9.44772 11 10 11ZM15 12C15 11.4477 14.5523 11 14 11C13.4477 11 13 11.4477 13 12V16C13 16.5523 13.4477 17 14 17C14.5523 17 15 16.5523 15 16V12Z" fill="#F14336"/>
</g>
</svg>
