<svg width="20" height="20" viewBox="0 0 20 20" fill="none" xmlns="http://www.w3.org/2000/svg">
<g id="Icon/Outline/eye">
<path id="Icon (Stroke)" fill-rule="evenodd" clip-rule="evenodd" d="M2.71169 9.66664C3.74145 12.5805 6.52071 14.6667 9.78517 14.6667C13.0496 14.6667 15.8289 12.5805 16.8586 9.66669C15.8289 6.75288 13.0496 4.66667 9.78516 4.66667C6.52071 4.66667 3.74146 6.75285 2.71169 9.66664ZM1.03829 9.41693C2.20614 5.69868 5.6794 3 9.78516 3C13.8909 3 17.3642 5.69872 18.532 9.41699C18.5831 9.57955 18.5831 9.75385 18.532 9.91641C17.3642 13.6347 13.8909 16.3333 9.78517 16.3333C5.6794 16.3333 2.20612 13.6346 1.03829 9.91634C0.987236 9.75379 0.987236 9.57948 1.03829 9.41693ZM9.78479 8C8.86432 8 8.11812 8.74619 8.11812 9.66667C8.11812 10.5871 8.86432 11.3333 9.78479 11.3333C10.7053 11.3333 11.4515 10.5871 11.4515 9.66667C11.4515 8.74619 10.7053 8 9.78479 8ZM6.45146 9.66667C6.45146 7.82572 7.94384 6.33333 9.78479 6.33333C11.6257 6.33333 13.1181 7.82572 13.1181 9.66667C13.1181 11.5076 11.6257 13 9.78479 13C7.94384 13 6.45146 11.5076 6.45146 9.66667Z" fill="#4F46E5"/>
</g>
</svg>
