<svg width="33" height="32" viewBox="0 0 33 32" fill="none" xmlns="http://www.w3.org/2000/svg">
<path d="M8.40224 19.0344L7.38962 22.8146L3.68854 22.8929C2.58246 20.8414 1.95508 18.4942 1.95508 15.9999C1.95508 13.5879 2.54167 11.3133 3.58144 9.31055H3.58224L6.87724 9.91464L8.32065 13.1899C8.01854 14.0706 7.85389 15.0161 7.85389 15.9999C7.854 17.0676 8.04741 18.0906 8.40224 19.0344Z" fill="#FBBB00"/>
<path d="M30.7919 13.2822C30.9589 14.1621 31.046 15.0708 31.046 15.9995C31.046 17.0409 30.9365 18.0567 30.7279 19.0365C30.0199 22.3707 28.1697 25.2822 25.6067 27.3426L25.6059 27.3418L21.4557 27.13L20.8683 23.4632C22.569 22.4659 23.898 20.905 24.5982 19.0365H16.8203V13.2822H24.7116H30.7919Z" fill="#518EF8"/>
<path d="M25.6067 27.3418L25.6075 27.3426C23.1148 29.3462 19.9484 30.545 16.5014 30.545C10.9622 30.545 6.14621 27.449 3.68945 22.8927L8.40315 19.0342C9.6315 22.3125 12.7939 24.6462 16.5014 24.6462C18.095 24.6462 19.588 24.2154 20.8691 23.4633L25.6067 27.3418Z" fill="#28B446"/>
<path d="M25.7854 4.80274L21.0733 8.66046C19.7475 7.83171 18.1802 7.35296 16.5011 7.35296C12.7097 7.35296 9.48811 9.7937 8.32129 13.1896L3.58283 9.31024H3.58203C6.00283 4.64291 10.8795 1.4541 16.5011 1.4541C20.0304 1.4541 23.2664 2.71126 25.7854 4.80274Z" fill="#F14336"/>
</svg>
