<svg width="25" height="25" viewBox="0 0 25 25" fill="none" xmlns="http://www.w3.org/2000/svg">
<path fill-rule="evenodd" clip-rule="evenodd" d="M14.8946 2.08301C15.4545 2.08301 15.9908 2.30839 16.3827 2.70834L20.2394 6.64475C20.6209 7.03416 20.8346 7.5576 20.8346 8.10276V19.5346C20.8346 21.4023 19.3512 22.9163 17.5214 22.9163H7.48122C5.65136 22.9163 4.16797 21.4023 4.16797 19.5346V5.46471C4.16797 3.59705 5.65136 2.08301 7.48122 2.08301H14.8946ZM14.8551 4.33748H7.48122C6.87127 4.33748 6.3768 4.84216 6.3768 5.46471V19.5346C6.3768 20.1572 6.87127 20.6619 7.48122 20.6619H17.5214C18.1313 20.6619 18.6258 20.1572 18.6258 19.5346V8.18609H16.4176C15.5546 8.18609 14.8551 7.48654 14.8551 6.62359V4.33748ZM15.8961 16.7012C16.5061 16.7012 17.0005 17.2059 17.0005 17.8284C17.0005 18.451 16.5061 18.9557 15.8961 18.9557H9.10647C8.49652 18.9557 8.00206 18.451 8.00206 17.8284C8.00206 17.2059 8.49652 16.7012 9.10647 16.7012H15.8961ZM15.8961 13.3195C16.5061 13.3195 17.0005 13.8242 17.0005 14.4467C17.0005 15.0693 16.5061 15.5739 15.8961 15.5739H9.10647C8.49652 15.5739 8.00206 15.0693 8.00206 14.4467C8.00206 13.8242 8.49652 13.3195 9.10647 13.3195H15.8961ZM15.8961 9.93778C16.5061 9.93778 17.0005 10.4425 17.0005 11.065C17.0005 11.6876 16.5061 12.1922 15.8961 12.1922H9.10647C8.49652 12.1922 8.00206 11.6876 8.00206 11.065C8.00206 10.4425 8.49652 9.93778 9.10647 9.93778H15.8961Z" fill="#646FD4"/>
</svg>
