<svg width="25" height="25" viewBox="0 0 25 25" fill="none" xmlns="http://www.w3.org/2000/svg">
<path fill-rule="evenodd" clip-rule="evenodd" d="M2.08203 5.72884C2.08203 3.7153 3.71433 2.08301 5.72786 2.08301H8.33203C10.3456 2.08301 11.9779 3.7153 11.9779 5.72884V8.33301C11.9779 10.3465 10.3456 11.9788 8.33203 11.9788H5.72786C3.71433 11.9788 2.08203 10.3465 2.08203 8.33301V5.72884ZM5.72786 4.16634C4.86492 4.16634 4.16536 4.8659 4.16536 5.72884V8.33301C4.16536 9.19595 4.86492 9.89551 5.72786 9.89551H8.33203C9.19498 9.89551 9.89453 9.19595 9.89453 8.33301V5.72884C9.89453 4.8659 9.19498 4.16634 8.33203 4.16634H5.72786Z" fill="#646FD4"/>
<path fill-rule="evenodd" clip-rule="evenodd" d="M2.08203 16.6663C2.08203 14.6528 3.71433 13.0205 5.72786 13.0205H8.33203C10.3456 13.0205 11.9779 14.6528 11.9779 16.6663V19.2705C11.9779 21.284 10.3456 22.9163 8.33203 22.9163H5.72786C3.71433 22.9163 2.08203 21.284 2.08203 19.2705V16.6663ZM5.72786 15.1038C4.86492 15.1038 4.16536 15.8034 4.16536 16.6663V19.2705C4.16536 20.1335 4.86492 20.833 5.72786 20.833H8.33203C9.19498 20.833 9.89453 20.1335 9.89453 19.2705V16.6663C9.89453 15.8034 9.19498 15.1038 8.33203 15.1038H5.72786Z" fill="#646FD4"/>
<path fill-rule="evenodd" clip-rule="evenodd" d="M13.0195 5.72884C13.0195 3.7153 14.6518 2.08301 16.6654 2.08301H19.2695C21.2831 2.08301 22.9154 3.7153 22.9154 5.72884V8.33301C22.9154 10.3465 21.2831 11.9788 19.2695 11.9788H16.6654C14.6518 11.9788 13.0195 10.3465 13.0195 8.33301V5.72884ZM16.6654 4.16634C15.8024 4.16634 15.1029 4.8659 15.1029 5.72884V8.33301C15.1029 9.19595 15.8024 9.89551 16.6654 9.89551H19.2695C20.1325 9.89551 20.832 9.19595 20.832 8.33301V5.72884C20.832 4.8659 20.1325 4.16634 19.2695 4.16634H16.6654Z" fill="#646FD4"/>
<path fill-rule="evenodd" clip-rule="evenodd" d="M13.0195 16.6663C13.0195 14.6528 14.6518 13.0205 16.6654 13.0205H19.2695C21.2831 13.0205 22.9154 14.6528 22.9154 16.6663V19.2705C22.9154 21.284 21.2831 22.9163 19.2695 22.9163H16.6654C14.6518 22.9163 13.0195 21.284 13.0195 19.2705V16.6663ZM16.6654 15.1038C15.8024 15.1038 15.1029 15.8034 15.1029 16.6663V19.2705C15.1029 20.1335 15.8024 20.833 16.6654 20.833H19.2695C20.1325 20.833 20.832 20.1335 20.832 19.2705V16.6663C20.832 15.8034 20.1325 15.1038 19.2695 15.1038H16.6654Z" fill="#646FD4"/>
</svg>
