<svg width="25" height="25" viewBox="0 0 25 25" fill="none" xmlns="http://www.w3.org/2000/svg">
<path d="M11.4583 3.125C13.1842 3.125 14.5833 4.52411 14.5833 6.25V7.29167C14.5833 7.86696 14.117 8.33333 13.5417 8.33333C12.9664 8.33333 12.5 7.86696 12.5 7.29167V6.25C12.5 5.6747 12.0336 5.20833 11.4583 5.20833H6.25C5.6747 5.20833 5.20833 5.6747 5.20833 6.25V18.75C5.20833 19.3253 5.6747 19.7917 6.25 19.7917H11.4583C12.0336 19.7917 12.5 19.3253 12.5 18.75V17.7083C12.5 17.133 12.9664 16.6667 13.5417 16.6667C14.117 16.6667 14.5833 17.133 14.5833 17.7083V18.75C14.5833 20.4759 13.1842 21.875 11.4583 21.875H6.25C4.52411 21.875 3.125 20.4759 3.125 18.75V6.25C3.125 4.52411 4.52411 3.125 6.25 3.125H11.4583Z" fill="#646FD4"/>
<path d="M17.4032 7.59676C16.9964 7.18997 16.3369 7.18997 15.9301 7.59676C15.5233 8.00356 15.5233 8.66311 15.9301 9.0699L18.3185 11.4583H8.33333C7.75804 11.4583 7.29167 11.9247 7.29167 12.5C7.29167 13.0753 7.75804 13.5417 8.33333 13.5417H18.3185L15.9301 15.9301C15.5233 16.3369 15.5233 16.9964 15.9301 17.4032C16.3369 17.81 16.9964 17.81 17.4032 17.4032L21.5699 13.2366C21.7554 13.0511 21.8563 12.813 21.8726 12.5703C21.8773 12.5023 21.8752 12.4337 21.8663 12.3654C21.8408 12.1683 21.7589 11.9771 21.6206 11.8178C21.6027 11.7971 21.5839 11.7772 21.5645 11.758L17.4032 7.59676Z" fill="#646FD4"/>
</svg>
