<svg width="25" height="25" viewBox="0 0 25 25" fill="none" xmlns="http://www.w3.org/2000/svg">
<path fill-rule="evenodd" clip-rule="evenodd" d="M12.5 8.33301C10.1988 8.33301 8.33337 10.1985 8.33337 12.4997C8.33337 14.8009 10.1988 16.6663 12.5 16.6663C14.8012 16.6663 16.6667 14.8009 16.6667 12.4997C16.6667 10.1985 14.8012 8.33301 12.5 8.33301ZM10.4167 12.4997C10.4167 11.3491 11.3494 10.4163 12.5 10.4163C13.6506 10.4163 14.5834 11.3491 14.5834 12.4997C14.5834 13.6503 13.6506 14.583 12.5 14.583C11.3494 14.583 10.4167 13.6503 10.4167 12.4997Z" fill="#646FD4"/>
<path fill-rule="evenodd" clip-rule="evenodd" d="M10.8829 2.08301C10.0867 2.08301 9.41786 2.68166 9.32993 3.47296L9.17628 4.85586C8.5942 5.10927 8.04702 5.42702 7.54366 5.79994L6.26777 5.24093C5.53852 4.92142 4.68565 5.20134 4.28757 5.89084L2.6704 8.69185C2.27232 9.38136 2.45634 10.2599 3.09766 10.7317L4.21953 11.557C4.18461 11.8668 4.16671 12.1813 4.16671 12.4997C4.16671 12.818 4.18461 13.1326 4.21953 13.4423L3.09766 14.2676C2.45634 14.7394 2.27232 15.618 2.6704 16.3075L4.28757 19.1085C4.68565 19.798 5.53853 20.0779 6.26777 19.7584L7.54367 19.1994C8.04703 19.5723 8.59421 19.8901 9.17628 20.1435L9.32993 21.5264C9.41786 22.3177 10.0867 22.9163 10.8829 22.9163H14.1172C14.9134 22.9163 15.5822 22.3177 15.6702 21.5264L15.8238 20.1435C16.4059 19.8901 16.9531 19.5723 17.4564 19.1994L18.7324 19.7584C19.4616 20.0779 20.3145 19.798 20.7126 19.1085L22.3298 16.3075C22.7278 15.618 22.5438 14.7394 21.9025 14.2676L20.7806 13.4423C20.8155 13.1326 20.8334 12.818 20.8334 12.4997C20.8334 12.1813 20.8155 11.8668 20.7806 11.5571L21.9025 10.7317C22.5438 10.2599 22.7279 9.38136 22.3298 8.69185L20.7126 5.89084C20.3145 5.20134 19.4616 4.92142 18.7324 5.24093L17.4565 5.79996C16.9531 5.42703 16.4059 5.10928 15.8238 4.85586L15.6702 3.47296C15.5822 2.68166 14.9134 2.08301 14.1172 2.08301H10.8829ZM11.2137 5.38426L11.349 4.16634H13.651L13.7864 5.38426C13.8542 5.99497 14.2649 6.47563 14.7871 6.68105C15.3698 6.9103 15.9103 7.22493 16.3932 7.60992C16.8324 7.96016 17.4544 8.07539 18.0172 7.8288L19.1415 7.33622L20.2925 9.32981L19.3044 10.0566C18.8101 10.4203 18.5989 11.0154 18.6815 11.57C18.7266 11.8728 18.75 12.1832 18.75 12.4997C18.75 12.8162 18.7266 13.1266 18.6815 13.4293C18.5989 13.9839 18.8101 14.5791 19.3044 14.9427L20.2925 15.6696L19.1415 17.6631L18.0172 17.1706C17.4544 16.924 16.8324 17.0392 16.3931 17.3894C15.9103 17.7744 15.3698 18.089 14.7871 18.3183C14.2649 18.5237 13.8542 19.0044 13.7864 19.6151L13.651 20.833H11.349L11.2137 19.6151C11.1459 19.0044 10.7351 18.5237 10.213 18.3183C9.6303 18.0891 9.08977 17.7744 8.60697 17.3895C8.16775 17.0392 7.54574 16.924 6.98293 17.1706L5.8587 17.6631L4.70771 15.6696L5.69565 14.9428C6.18999 14.5791 6.40116 13.984 6.31858 13.4294C6.27349 13.1266 6.25004 12.8162 6.25004 12.4997C6.25004 12.1832 6.27349 11.8728 6.31857 11.57C6.40116 11.0154 6.18998 10.4203 5.69565 10.0566L4.70771 9.32981L5.8587 7.33622L6.98292 7.82878C7.54573 8.07536 8.16774 7.96013 8.60696 7.6099C9.08976 7.22492 9.63029 6.9103 10.213 6.68105C10.7351 6.47563 11.1459 5.99497 11.2137 5.38426Z" fill="#646FD4"/>
</svg>
