<svg width="25" height="25" viewBox="0 0 25 25" fill="none" xmlns="http://www.w3.org/2000/svg">
<path d="M13 8H19.6667H20.1667V7.5V3.25V2.75H19.6667H6.33333H5.83333V3.25V7.5V8H6.33333H13ZM13 8C14.206 8 15.1 8.97038 15.1 10C15.1 10.5078 14.8816 11.0548 14.5358 11.4743C14.1862 11.8984 13.656 12.25 13 12.25C11.794 12.25 10.9 11.2796 10.9 10.25C10.9 9.74219 11.1184 9.19517 11.4642 8.77573C11.8138 8.3516 12.344 8 13 8ZM6.33333 2.5H19.6667C19.9623 2.5 20.166 2.59103 20.2914 2.70852C20.4138 2.82327 20.5 2.99871 20.5 3.25V20.75C20.5 21.0013 20.4138 21.1767 20.2914 21.2915C20.166 21.409 19.9623 21.5 19.6667 21.5H6.33333C6.03765 21.5 5.83396 21.409 5.70864 21.2915C5.58623 21.1767 5.5 21.0013 5.5 20.75V3.25C5.5 2.99871 5.58623 2.82327 5.70864 2.70852C5.83396 2.59103 6.03765 2.5 6.33333 2.5ZM6.23333 19C6.23333 20.0296 7.12734 21 8.33333 21C9.53932 21 10.4333 20.0296 10.4333 19C10.4333 18.4506 10.1463 17.9518 9.7753 17.604C9.40222 17.2542 8.88488 17 8.33333 17C7.78178 17 7.26445 17.2542 6.89136 17.604C6.52036 17.9518 6.23333 18.4506 6.23333 19ZM6.23333 14.5C6.23333 15.5296 7.12734 16.5 8.33333 16.5C9.53932 16.5 10.4333 15.5296 10.4333 14.5C10.4333 13.9506 10.1463 13.4518 9.7753 13.104C9.40222 12.7542 8.88488 12.5 8.33333 12.5C7.78178 12.5 7.26445 12.7542 6.89136 13.104C6.52036 13.4518 6.23333 13.9506 6.23333 14.5ZM6.23333 10.25C6.23333 11.2796 7.12734 12.25 8.33333 12.25C9.53932 12.25 10.4333 11.2796 10.4333 10.25C10.4333 9.70063 10.1463 9.2018 9.7753 8.85398C9.40222 8.50421 8.88488 8.25 8.33333 8.25C7.78178 8.25 7.26445 8.50421 6.89136 8.85398C6.52036 9.2018 6.23333 9.70063 6.23333 10.25ZM10.9 19C10.9 20.0296 11.794 21 13 21C14.206 21 15.1 20.0296 15.1 19C15.1 18.4506 14.813 17.9518 14.442 17.604C14.0689 17.2542 13.5516 17 13 17C12.4484 17 11.9311 17.2542 11.558 17.604C11.187 17.9518 10.9 18.4506 10.9 19ZM10.9 14.5C10.9 15.5296 11.794 16.5 13 16.5C14.206 16.5 15.1 15.5296 15.1 14.5C15.1 13.9506 14.813 13.4518 14.442 13.104C14.0689 12.7542 13.5516 12.5 13 12.5C12.4484 12.5 11.9311 12.7542 11.558 13.104C11.187 13.4518 10.9 13.9506 10.9 14.5ZM17.8 20.875C18.8172 20.875 19.9 20.0816 19.9 18.875V14.5C19.9 13.9506 19.613 13.4518 19.242 13.104C18.8689 12.7542 18.3516 12.5 17.8 12.5C16.7828 12.5 15.7 13.2934 15.7 14.5V18.875C15.7 19.4244 15.987 19.9232 16.358 20.271C16.7311 20.6208 17.2485 20.875 17.8 20.875ZM15.5667 10.25C15.5667 11.2796 16.4607 12.25 17.6667 12.25C18.8727 12.25 19.7667 11.2796 19.7667 10.25C19.7667 9.70063 19.4796 9.2018 19.1086 8.85398C18.7356 8.50421 18.2182 8.25 17.6667 8.25C17.1151 8.25 16.5978 8.50421 16.2247 8.85398C15.8537 9.2018 15.5667 9.70063 15.5667 10.25Z" fill="#646FD4" stroke="#646FD4"/>
</svg>
