<svg width="25" height="25" viewBox="0 0 25 25" fill="none" xmlns="http://www.w3.org/2000/svg">
<path d="M8.55034 4.47207L10.723 2.29937C11.3793 1.64316 12.5013 2.10792 12.5013 3.03594V4.16696C17.1036 4.16696 20.8346 7.89792 20.8346 12.5003C20.8346 13.0756 20.3683 13.542 19.793 13.542C19.2177 13.542 18.7513 13.0756 18.7513 12.5003C18.7513 9.04852 15.9531 6.2503 12.5013 6.2503L12.5013 7.38133C12.5013 8.30936 11.3793 8.77412 10.723 8.1179L8.55034 5.94521C8.14355 5.53841 8.14355 4.87886 8.55034 4.47207Z" fill="#646FD4"/>
<path d="M6.2513 12.5003C6.2513 11.925 5.78493 11.4586 5.20964 11.4586C4.63434 11.4586 4.16797 11.925 4.16797 12.5003C4.16797 17.1027 7.89893 20.8336 12.5013 20.8336V21.9646C12.5013 22.8927 13.6233 23.3574 14.2795 22.7012L16.4522 20.5285C16.859 20.1217 16.859 19.4622 16.4522 19.0554L14.2795 16.8827C13.6233 16.2265 12.5013 16.6912 12.5013 17.6193V18.7503C9.04952 18.7503 6.2513 15.9521 6.2513 12.5003Z" fill="#646FD4"/>
</svg>
