<svg width="25" height="25" viewBox="0 0 25 25" fill="none" xmlns="http://www.w3.org/2000/svg">
<path d="M13.543 14.583C13.543 14.0077 13.0766 13.5413 12.5013 13.5413C11.926 13.5413 11.4596 14.0077 11.4596 14.583V16.6663C11.4596 17.2416 11.926 17.708 12.5013 17.708C13.0766 17.708 13.543 17.2416 13.543 16.6663V14.583Z" fill="#646FD4"/>
<path fill-rule="evenodd" clip-rule="evenodd" d="M7.29297 7.49967V8.33301C5.56708 8.33301 4.16797 9.73212 4.16797 11.458V19.7913C4.16797 21.5172 5.56708 22.9163 7.29297 22.9163H17.7096C19.4355 22.9163 20.8346 21.5172 20.8346 19.7913V11.458C20.8346 9.73212 19.4355 8.33301 17.7096 8.33301V7.49967C17.7096 4.55661 15.4251 2.08301 12.5013 2.08301C9.57751 2.08301 7.29297 4.55661 7.29297 7.49967ZM12.5013 4.16634C10.8227 4.16634 9.3763 5.61025 9.3763 7.49967V8.33301H15.6263V7.49967C15.6263 5.61025 14.1799 4.16634 12.5013 4.16634ZM7.29297 10.4163H17.7096C18.2849 10.4163 18.7513 10.8827 18.7513 11.458V19.7913C18.7513 20.3666 18.2849 20.833 17.7096 20.833H7.29297C6.71767 20.833 6.2513 20.3666 6.2513 19.7913V11.458C6.2513 10.8827 6.71767 10.4163 7.29297 10.4163Z" fill="#646FD4"/>
</svg>
