<svg width="25" height="25" viewBox="0 0 25 25" fill="none" xmlns="http://www.w3.org/2000/svg">
<path fill-rule="evenodd" clip-rule="evenodd" d="M5.20703 4.16699C3.48114 4.16699 2.08203 5.5661 2.08203 7.29199V17.7087C2.08203 19.4345 3.48114 20.8337 5.20703 20.8337H18.7487C20.4746 20.8337 21.8737 19.4346 21.8737 17.7087V14.8296C22.513 14.2574 22.9154 13.4258 22.9154 12.5003C22.9154 11.5748 22.513 10.7433 21.8737 10.171V7.29199C21.8737 5.5661 20.4746 4.16699 18.7487 4.16699H5.20703ZM19.7904 9.37533V7.29199C19.7904 6.7167 19.324 6.25033 18.7487 6.25033H5.20703C4.63173 6.25033 4.16536 6.7167 4.16536 7.29199V17.7087C4.16536 18.284 4.63173 18.7503 5.20703 18.7503H18.7487C19.324 18.7503 19.7904 18.284 19.7904 17.7087V15.6253H17.707C15.9811 15.6253 14.582 14.2262 14.582 12.5003C14.582 10.7744 15.9811 9.37533 17.707 9.37533H19.7904ZM16.6654 12.5003C16.6654 11.925 17.1317 11.4587 17.707 11.4587H19.7904C20.3657 11.4587 20.832 11.925 20.832 12.5003C20.832 13.0756 20.3657 13.542 19.7904 13.542H17.707C17.1317 13.542 16.6654 13.0756 16.6654 12.5003Z" fill="#646FD4"/>
</svg>
