<svg width="25" height="25" viewBox="0 0 25 25" fill="none" xmlns="http://www.w3.org/2000/svg">
<path fill-rule="evenodd" clip-rule="evenodd" d="M16.6339 3.86158C17.8543 2.64119 19.8329 2.64119 21.0533 3.86158C22.2737 5.08197 22.2737 7.06061 21.0533 8.281L15.6579 13.6763C15.4698 13.8645 15.2167 13.9735 14.9507 13.981L11.9191 14.0663C11.6325 14.0744 11.3553 13.964 11.1528 13.7612C10.9502 13.5583 10.8402 13.281 10.8486 12.9944L10.938 9.95878C10.9458 9.69324 11.0547 9.44071 11.2426 9.25286L16.6339 3.86158ZM19.5802 5.33472C19.1734 4.92792 18.5138 4.92792 18.107 5.33472L17.9116 5.53015L19.3847 7.00328L19.5802 6.80786C19.987 6.40106 19.987 5.74152 19.5802 5.33472ZM17.9116 8.47642L16.4385 7.00328L13.0082 10.4335L12.9635 11.9528L14.4778 11.9102L17.9116 8.47642Z" fill="#646FD4"/>
<path d="M6.25 5.20834C5.6747 5.20834 5.20833 5.67471 5.20833 6.25001V18.75C5.20833 19.3253 5.6747 19.7917 6.25 19.7917H18.75C19.3253 19.7917 19.7917 19.3253 19.7917 18.75V12.5C19.7917 11.9247 20.258 11.4583 20.8333 11.4583C21.4086 11.4583 21.875 11.9247 21.875 12.5V18.75C21.875 20.4759 20.4759 21.875 18.75 21.875H6.25C4.52411 21.875 3.125 20.4759 3.125 18.75V6.25001C3.125 4.52412 4.52411 3.12501 6.25 3.12501H12.5C13.0753 3.12501 13.5417 3.59138 13.5417 4.16668C13.5417 4.74197 13.0753 5.20834 12.5 5.20834H6.25Z" fill="#646FD4"/>
</svg>
