<svg width="24" height="8" viewBox="0 0 24 8" fill="none" xmlns="http://www.w3.org/2000/svg">
<g id="menu icon">
<g id="Vector">
<path d="M6.31579 4.00164C6.31579 5.7457 4.90195 7.15954 3.15789 7.15954C1.41384 7.15954 0 5.7457 0 4.00164C0 2.25759 1.41384 0.84375 3.15789 0.84375C4.90195 0.84375 6.31579 2.25759 6.31579 4.00164Z" fill="#242F9B"/>
<path d="M15.1595 4.00164C15.1595 5.7457 13.7457 7.15954 12.0016 7.15954C10.2576 7.15954 8.84375 5.7457 8.84375 4.00164C8.84375 2.25759 10.2576 0.84375 12.0016 0.84375C13.7457 0.84375 15.1595 2.25759 15.1595 4.00164Z" fill="#242F9B"/>
<path d="M23.9994 4.00164C23.9994 5.7457 22.5855 7.15954 20.8415 7.15954C19.0974 7.15954 17.6836 5.7457 17.6836 4.00164C17.6836 2.25759 19.0974 0.84375 20.8415 0.84375C22.5855 0.84375 23.9994 2.25759 23.9994 4.00164Z" fill="#242F9B"/>
</g>
</g>
</svg>
