<svg width="24" height="24" viewBox="0 0 24 24" fill="none" xmlns="http://www.w3.org/2000/svg">
<g id="droop/filled/cloud_download">
<path id="Union" fill-rule="evenodd" clip-rule="evenodd" d="M19.7778 10.8571C19.7778 7.07005 16.793 4 13.1111 4C9.5 4 6.79786 6.42135 6.79786 8.62413C4.08806 9.00423 2 11.3942 2 14.2857C2 17.4416 4.48731 20 7.55556 20H17.8974C20.1632 20 22 18.1567 22 15.8829C22 14.2892 21.0977 12.6843 19.7778 12V10.8571ZM15.8321 13.4453C16.1384 13.9048 16.0142 14.5257 15.5547 14.8321L12.5661 16.8245C12.4065 16.9342 12.2135 16.9989 12.0055 17L12 17L11.9945 17C11.7865 16.9989 11.5935 16.9342 11.4339 16.8245L8.4453 14.8321C7.98577 14.5257 7.8616 13.9048 8.16795 13.4453C8.4743 12.9858 9.09517 12.8616 9.5547 13.168L11 14.1315V10C11 9.44772 11.4477 9 12 9C12.5523 9 13 9.44772 13 10V14.1315L14.4453 13.1679C14.9048 12.8616 15.5257 12.9858 15.8321 13.4453Z" fill="#28B446"/>
</g>
</svg>
