<svg width="20" height="20" viewBox="0 0 20 20" fill="none" xmlns="http://www.w3.org/2000/svg">
<path fill-rule="evenodd" clip-rule="evenodd" d="M9.16797 3.33366C5.94631 3.33366 3.33464 5.94533 3.33464 9.16699C3.33464 12.3887 5.94631 15.0003 9.16797 15.0003C12.3896 15.0003 15.0013 12.3887 15.0013 9.16699C15.0013 5.94533 12.3896 3.33366 9.16797 3.33366ZM1.66797 9.16699C1.66797 5.02486 5.02583 1.66699 9.16797 1.66699C13.3101 1.66699 16.668 5.02486 16.668 9.16699C16.668 13.3091 13.3101 16.667 9.16797 16.667C5.02583 16.667 1.66797 13.3091 1.66797 9.16699Z" fill="#7879F1"/>
<path fill-rule="evenodd" clip-rule="evenodd" d="M13.287 13.2861C13.6125 12.9606 14.1401 12.9606 14.4656 13.2861L18.0906 16.9111C18.416 17.2365 18.416 17.7641 18.0906 18.0896C17.7651 18.415 17.2375 18.415 16.912 18.0896L13.287 14.4646C12.9616 14.1391 12.9616 13.6115 13.287 13.2861Z" fill="#7879F1"/>
</svg>
