<svg width="21" height="22" viewBox="0 0 21 22" fill="none" xmlns="http://www.w3.org/2000/svg">
<g id="Vector">
<path d="M20 11C20 16.2467 15.7467 20.5 10.5 20.5C5.25329 20.5 1 16.2467 1 11C1 5.75329 5.25329 1.5 10.5 1.5C15.7467 1.5 20 5.75329 20 11Z" fill="white"/>
<path d="M16.3056 7.61018L8.70556 14.6944L5.22222 11.4475L6.11522 10.6151L8.70556 13.0237L15.4126 6.77778L16.3056 7.61018Z" fill="#00C250"/>
<path d="M10.5 21C16.0228 21 20.5 16.5228 20.5 11C20.5 5.47715 16.0228 1 10.5 1C4.97715 1 0.5 5.47715 0.5 11C0.5 16.5228 4.97715 21 10.5 21Z" stroke="#00C250"/>
</g>
</svg>
