<svg width="110" height="22" viewBox="0 0 110 22" fill="none" xmlns="http://www.w3.org/2000/svg">
<path d="M35.306 8.548C36.7287 8.548 37.858 9.02467 38.694 9.978C39.53 10.9167 39.948 12.1927 39.948 13.806V21H35.636V14.378C35.636 13.674 35.4527 13.124 35.086 12.728C34.7193 12.3173 34.228 12.112 33.612 12.112C32.9667 12.112 32.4607 12.3173 32.094 12.728C31.7273 13.124 31.544 13.674 31.544 14.378V21H27.232V8.658H31.544V10.418C31.9253 9.86067 32.4387 9.41333 33.084 9.076C33.7293 8.724 34.47 8.548 35.306 8.548Z" fill="#242F9B"/>
<path d="M48.056 21.154C46.824 21.154 45.7167 20.8973 44.734 20.384C43.766 19.8707 43.0034 19.1373 42.446 18.184C41.8887 17.2307 41.61 16.1087 41.61 14.818C41.61 13.542 41.8887 12.4273 42.446 11.474C43.018 10.5207 43.788 9.78733 44.756 9.274C45.7387 8.76067 46.846 8.504 48.078 8.504C49.31 8.504 50.41 8.76067 51.378 9.274C52.3607 9.78733 53.1307 10.5207 53.688 11.474C54.26 12.4273 54.546 13.542 54.546 14.818C54.546 16.094 54.26 17.216 53.688 18.184C53.1307 19.1373 52.3607 19.8707 51.378 20.384C50.3954 20.8973 49.288 21.154 48.056 21.154ZM48.056 17.414C48.6574 17.414 49.156 17.194 49.552 16.754C49.9627 16.2993 50.168 15.654 50.168 14.818C50.168 13.982 49.9627 13.344 49.552 12.904C49.156 12.464 48.6647 12.244 48.078 12.244C47.4914 12.244 47 12.464 46.604 12.904C46.208 13.344 46.01 13.982 46.01 14.818C46.01 15.6687 46.2007 16.314 46.582 16.754C46.9634 17.194 47.4547 17.414 48.056 17.414Z" fill="#242F9B"/>
<path d="M63.5824 17.326V21H61.7124C58.559 21 56.9824 19.438 56.9824 16.314V12.244H55.4644V8.658H56.9824V5.666H61.3164V8.658H63.5604V12.244H61.3164V16.38C61.3164 16.7173 61.3897 16.9593 61.5364 17.106C61.6977 17.2527 61.9617 17.326 62.3284 17.326H63.5824Z" fill="#242F9B"/>
<path d="M67.7381 7.514C66.9755 7.514 66.3595 7.30867 65.8901 6.898C65.4355 6.47267 65.2081 5.94467 65.2081 5.314C65.2081 4.66867 65.4355 4.13333 65.8901 3.708C66.3595 3.28267 66.9755 3.07 67.7381 3.07C68.4861 3.07 69.0875 3.28267 69.5421 3.708C70.0115 4.13333 70.2461 4.66867 70.2461 5.314C70.2461 5.94467 70.0115 6.47267 69.5421 6.898C69.0875 7.30867 68.4861 7.514 67.7381 7.514ZM69.8721 8.658V21H65.5601V8.658H69.8721Z" fill="#242F9B"/>
<path d="M78.9937 12.244H77.0577V21H72.7237V12.244H71.3817V8.658H72.7237V8.548C72.7237 6.964 73.1857 5.754 74.1097 4.918C75.0484 4.06733 76.3904 3.642 78.1357 3.642C78.4877 3.642 78.759 3.64933 78.9497 3.664V7.338C78.8324 7.32333 78.671 7.316 78.4657 7.316C77.9964 7.316 77.6517 7.426 77.4317 7.646C77.2117 7.85133 77.087 8.18867 77.0577 8.658H78.9937V12.244Z" fill="#242F9B"/>
<path d="M82.7127 7.514C81.9501 7.514 81.3341 7.30867 80.8647 6.898C80.4101 6.47267 80.1827 5.94467 80.1827 5.314C80.1827 4.66867 80.4101 4.13333 80.8647 3.708C81.3341 3.28267 81.9501 3.07 82.7127 3.07C83.4607 3.07 84.0621 3.28267 84.5167 3.708C84.9861 4.13333 85.2207 4.66867 85.2207 5.314C85.2207 5.94467 84.9861 6.47267 84.5167 6.898C84.0621 7.30867 83.4607 7.514 82.7127 7.514ZM84.8467 8.658V21H80.5347V8.658H84.8467Z" fill="#242F9B"/>
<path d="M99.0943 14.686C99.0943 15.0233 99.0723 15.3607 99.0283 15.698H90.8663C90.9103 16.3727 91.0936 16.8787 91.4163 17.216C91.7536 17.5387 92.179 17.7 92.6923 17.7C93.411 17.7 93.9243 17.3773 94.2323 16.732H98.8303C98.6396 17.5827 98.2656 18.3453 97.7083 19.02C97.1656 19.68 96.4763 20.2007 95.6403 20.582C94.8043 20.9633 93.8803 21.154 92.8683 21.154C91.651 21.154 90.5656 20.8973 89.6123 20.384C88.6736 19.8707 87.933 19.1373 87.3903 18.184C86.8623 17.2307 86.5983 16.1087 86.5983 14.818C86.5983 13.5273 86.8623 12.4127 87.3903 11.474C87.9183 10.5207 88.6516 9.78733 89.5903 9.274C90.5436 8.76067 91.6363 8.504 92.8683 8.504C94.0856 8.504 95.1636 8.75333 96.1023 9.252C97.041 9.75067 97.7743 10.4693 98.3023 11.408C98.8303 12.332 99.0943 13.4247 99.0943 14.686ZM94.6943 13.608C94.6943 13.08 94.5183 12.6693 94.1663 12.376C93.8143 12.068 93.3743 11.914 92.8463 11.914C92.3183 11.914 91.8856 12.0607 91.5483 12.354C91.211 12.6327 90.991 13.0507 90.8883 13.608H94.6943Z" fill="#242F9B"/>
<path d="M105.171 10.836C105.655 10.132 106.242 9.57467 106.931 9.164C107.62 8.75333 108.361 8.548 109.153 8.548V13.146H107.943C107.004 13.146 106.308 13.3293 105.853 13.696C105.398 14.0627 105.171 14.7007 105.171 15.61V21H100.859V8.658H105.171V10.836Z" fill="#242F9B"/>
<path d="M12.5 14.75C12.5 18.2018 9.70178 21 6.25 21C2.79822 21 0 18.2018 0 14.75C0 11.2982 2.79822 8.5 6.25 8.5C9.70178 8.5 12.5 11.2982 12.5 14.75Z" fill="#9BA3EB"/>
<path d="M15.5 6.25C15.5 9.70178 12.7018 12.5 9.25 12.5C5.79822 12.5 3 9.70178 3 6.25C3 2.79822 5.79822 0 9.25 0C12.7018 0 15.5 2.79822 15.5 6.25Z" fill="#242F9B"/>
<path d="M22 12.25C22 15.7018 19.2018 18.5 15.75 18.5C12.2982 18.5 9.5 15.7018 9.5 12.25C9.5 8.79822 12.2982 6 15.75 6C19.2018 6 22 8.79822 22 12.25Z" fill="#7879F1"/>
</svg>
