<svg width="83" height="19" viewBox="0 0 83 19" fill="none" xmlns="http://www.w3.org/2000/svg">
<path d="M8.30447 5.54831C9.72714 5.54831 10.8565 6.02498 11.6925 6.97831C12.5285 7.91698 12.9465 9.19298 12.9465 10.8063V18.0003H8.63447V11.3783C8.63447 10.6743 8.45113 10.1243 8.08447 9.72831C7.7178 9.31765 7.22647 9.11231 6.61047 9.11231C5.96513 9.11231 5.45914 9.31765 5.09247 9.72831C4.7258 10.1243 4.54247 10.6743 4.54247 11.3783V18.0003H0.230469V5.65831H4.54247V7.41831C4.9238 6.86098 5.43713 6.41365 6.08247 6.07631C6.7278 5.72431 7.46847 5.54831 8.30447 5.54831Z" fill="#242F9B"/>
<path d="M21.0545 18.1543C19.8225 18.1543 18.7152 17.8976 17.7325 17.3843C16.7645 16.871 16.0018 16.1376 15.4445 15.1843C14.8872 14.231 14.6085 13.109 14.6085 11.8183C14.6085 10.5423 14.8872 9.42765 15.4445 8.47431C16.0165 7.52098 16.7865 6.78765 17.7545 6.27431C18.7372 5.76098 19.8445 5.50431 21.0765 5.50431C22.3085 5.50431 23.4085 5.76098 24.3765 6.27431C25.3592 6.78765 26.1292 7.52098 26.6865 8.47431C27.2585 9.42765 27.5445 10.5423 27.5445 11.8183C27.5445 13.0943 27.2585 14.2163 26.6865 15.1843C26.1292 16.1376 25.3592 16.871 24.3765 17.3843C23.3938 17.8976 22.2865 18.1543 21.0545 18.1543ZM21.0545 14.4143C21.6558 14.4143 22.1545 14.1943 22.5505 13.7543C22.9612 13.2996 23.1665 12.6543 23.1665 11.8183C23.1665 10.9823 22.9612 10.3443 22.5505 9.90431C22.1545 9.46431 21.6632 9.24431 21.0765 9.24431C20.4898 9.24431 19.9985 9.46431 19.6025 9.90431C19.2065 10.3443 19.0085 10.9823 19.0085 11.8183C19.0085 12.669 19.1992 13.3143 19.5805 13.7543C19.9618 14.1943 20.4532 14.4143 21.0545 14.4143Z" fill="#242F9B"/>
<path d="M36.5808 14.3263V18.0003H34.7108C31.5575 18.0003 29.9808 16.4383 29.9808 13.3143V9.24431H28.4628V5.65831H29.9808V2.66631H34.3148V5.65831H36.5588V9.24431H34.3148V13.3803C34.3148 13.7176 34.3882 13.9596 34.5348 14.1063C34.6962 14.253 34.9602 14.3263 35.3268 14.3263H36.5808Z" fill="#242F9B"/>
<path d="M40.7366 4.51431C39.9739 4.51431 39.3579 4.30898 38.8886 3.89831C38.4339 3.47298 38.2066 2.94498 38.2066 2.31431C38.2066 1.66898 38.4339 1.13365 38.8886 0.708313C39.3579 0.282979 39.9739 0.0703125 40.7366 0.0703125C41.4846 0.0703125 42.0859 0.282979 42.5406 0.708313C43.0099 1.13365 43.2446 1.66898 43.2446 2.31431C43.2446 2.94498 43.0099 3.47298 42.5406 3.89831C42.0859 4.30898 41.4846 4.51431 40.7366 4.51431ZM42.8706 5.65831V18.0003H38.5586V5.65831H42.8706Z" fill="#242F9B"/>
<path d="M51.9922 9.24431H50.0562V18.0003H45.7222V9.24431H44.3802V5.65831H45.7222V5.54831C45.7222 3.96431 46.1842 2.75431 47.1082 1.91831C48.0468 1.06765 49.3888 0.642313 51.1342 0.642313C51.4862 0.642313 51.7575 0.649646 51.9482 0.664313V4.33831C51.8308 4.32365 51.6695 4.31631 51.4642 4.31631C50.9948 4.31631 50.6502 4.42631 50.4302 4.64631C50.2102 4.85165 50.0855 5.18898 50.0562 5.65831H51.9922V9.24431Z" fill="#242F9B"/>
<path d="M55.7112 4.51431C54.9485 4.51431 54.3325 4.30898 53.8632 3.89831C53.4085 3.47298 53.1812 2.94498 53.1812 2.31431C53.1812 1.66898 53.4085 1.13365 53.8632 0.708313C54.3325 0.282979 54.9485 0.0703125 55.7112 0.0703125C56.4592 0.0703125 57.0605 0.282979 57.5152 0.708313C57.9845 1.13365 58.2192 1.66898 58.2192 2.31431C58.2192 2.94498 57.9845 3.47298 57.5152 3.89831C57.0605 4.30898 56.4592 4.51431 55.7112 4.51431ZM57.8452 5.65831V18.0003H53.5332V5.65831H57.8452Z" fill="#242F9B"/>
<path d="M72.0928 11.6863C72.0928 12.0236 72.0708 12.361 72.0268 12.6983H63.8648C63.9088 13.373 64.0921 13.879 64.4148 14.2163C64.7521 14.539 65.1774 14.7003 65.6908 14.7003C66.4094 14.7003 66.9228 14.3776 67.2308 13.7323H71.8288C71.6381 14.583 71.2641 15.3456 70.7068 16.0203C70.1641 16.6803 69.4748 17.201 68.6388 17.5823C67.8028 17.9636 66.8788 18.1543 65.8668 18.1543C64.6494 18.1543 63.5641 17.8976 62.6108 17.3843C61.6721 16.871 60.9314 16.1376 60.3888 15.1843C59.8608 14.231 59.5968 13.109 59.5968 11.8183C59.5968 10.5276 59.8608 9.41298 60.3888 8.47431C60.9168 7.52098 61.6501 6.78765 62.5888 6.27431C63.5421 5.76098 64.6348 5.50431 65.8668 5.50431C67.0841 5.50431 68.1621 5.75365 69.1008 6.25231C70.0394 6.75098 70.7728 7.46965 71.3008 8.40831C71.8288 9.33231 72.0928 10.425 72.0928 11.6863ZM67.6928 10.6083C67.6928 10.0803 67.5168 9.66965 67.1648 9.37631C66.8128 9.06831 66.3728 8.91431 65.8448 8.91431C65.3168 8.91431 64.8841 9.06098 64.5468 9.35431C64.2094 9.63298 63.9894 10.051 63.8868 10.6083H67.6928Z" fill="#242F9B"/>
<path d="M78.1694 7.83631C78.6534 7.13231 79.2401 6.57498 79.9294 6.16431C80.6188 5.75365 81.3594 5.54831 82.1514 5.54831V10.1463H80.9414C80.0028 10.1463 79.3061 10.3296 78.8514 10.6963C78.3968 11.063 78.1694 11.701 78.1694 12.6103V18.0003H73.8574V5.65831H78.1694V7.83631Z" fill="#242F9B"/>
</svg>
