<svg width="30" height="29" viewBox="0 0 30 29" fill="none" xmlns="http://www.w3.org/2000/svg">
<path d="M16.5 19.9865C16.5 24.9645 12.8063 29 8.25 29C3.69365 29 0 24.9645 0 19.9865C0 15.0085 3.69365 10.973 8.25 10.973C12.8063 10.973 16.5 15.0085 16.5 19.9865Z" fill="#9BA3EB"/>
<path d="M22.5 9.01351C22.5 13.9915 18.4706 18.027 13.5 18.027C8.52944 18.027 4.5 13.9915 4.5 9.01351C4.5 4.03549 8.52944 0 13.5 0C18.4706 0 22.5 4.03549 22.5 9.01351Z" fill="#242F9B"/>
<path d="M30 16.4595C30 21.6539 26.1385 25.8649 21.375 25.8649C16.6115 25.8649 12.75 21.6539 12.75 16.4595C12.75 11.265 16.6115 7.05405 21.375 7.05405C26.1385 7.05405 30 11.265 30 16.4595Z" fill="#7879F1"/>
</svg>
